<mxfile host="app.diagrams.net" modified="2020-09-12T06:56:23.627Z" agent="5.0 (Windows)" etag="AL2k6TB-O-w7cKM71Zc0" version="13.6.10" type="github">
  <diagram id="bF0rsbzrtMlWH6wpvClE" name="Page-1">
    <mxGraphModel dx="910" dy="487" grid="1" gridSize="10" guides="1" tooltips="1" connect="1" arrows="1" fold="1" page="1" pageScale="1" pageWidth="1169" pageHeight="827" math="0" shadow="0">
      <root>
        <mxCell id="0" />
        <mxCell id="1" parent="0" />
        <mxCell id="iUJv8x9J-QZsbXyGkX2S-1" value="Pensions - Dependant Cases" style="swimlane;" vertex="1" parent="1">
          <mxGeometry x="40" y="20" width="870" height="730" as="geometry" />
        </mxCell>
        <mxCell id="iUJv8x9J-QZsbXyGkX2S-2" value="Start" style="rounded=1;whiteSpace=wrap;html=1;fontSize=10;" vertex="1" parent="iUJv8x9J-QZsbXyGkX2S-1">
          <mxGeometry x="200" y="50" width="120" height="60" as="geometry" />
        </mxCell>
        <mxCell id="iUJv8x9J-QZsbXyGkX2S-3" value="Entry of deceased Pensioner data into PMIS after death is reported" style="rounded=0;whiteSpace=wrap;html=1;fontSize=10;" vertex="1" parent="iUJv8x9J-QZsbXyGkX2S-1">
          <mxGeometry x="200" y="190" width="120" height="60" as="geometry" />
        </mxCell>
        <mxCell id="iUJv8x9J-QZsbXyGkX2S-5" value="" style="edgeStyle=orthogonalEdgeStyle;rounded=0;orthogonalLoop=1;jettySize=auto;html=1;entryX=0.5;entryY=0;entryDx=0;entryDy=0;" edge="1" parent="iUJv8x9J-QZsbXyGkX2S-1" source="iUJv8x9J-QZsbXyGkX2S-2" target="iUJv8x9J-QZsbXyGkX2S-3">
          <mxGeometry relative="1" as="geometry">
            <mxPoint x="260" y="190" as="targetPoint" />
          </mxGeometry>
        </mxCell>
        <mxCell id="iUJv8x9J-QZsbXyGkX2S-6" value="Validates the record in PMIS using ID card details" style="whiteSpace=wrap;html=1;rounded=0;fontSize=10;" vertex="1" parent="iUJv8x9J-QZsbXyGkX2S-1">
          <mxGeometry x="200" y="310" width="120" height="60" as="geometry" />
        </mxCell>
        <mxCell id="iUJv8x9J-QZsbXyGkX2S-7" value="" style="edgeStyle=orthogonalEdgeStyle;rounded=0;orthogonalLoop=1;jettySize=auto;html=1;" edge="1" parent="iUJv8x9J-QZsbXyGkX2S-1" source="iUJv8x9J-QZsbXyGkX2S-3" target="iUJv8x9J-QZsbXyGkX2S-6">
          <mxGeometry relative="1" as="geometry" />
        </mxCell>
        <mxCell id="iUJv8x9J-QZsbXyGkX2S-12" value="yes" style="text;html=1;strokeColor=none;fillColor=none;align=center;verticalAlign=middle;whiteSpace=wrap;rounded=0;fontSize=10;" vertex="1" parent="iUJv8x9J-QZsbXyGkX2S-1">
          <mxGeometry x="257" y="544" width="40" height="20" as="geometry" />
        </mxCell>
        <mxCell id="iUJv8x9J-QZsbXyGkX2S-15" value="no" style="text;html=1;strokeColor=none;fillColor=none;align=center;verticalAlign=middle;whiteSpace=wrap;rounded=0;fontSize=10;" vertex="1" parent="iUJv8x9J-QZsbXyGkX2S-1">
          <mxGeometry x="123" y="330" width="40" height="20" as="geometry" />
        </mxCell>
        <mxCell id="iUJv8x9J-QZsbXyGkX2S-11" value="" style="edgeStyle=orthogonalEdgeStyle;rounded=0;orthogonalLoop=1;jettySize=auto;html=1;fontSize=10;" edge="1" parent="1" source="iUJv8x9J-QZsbXyGkX2S-8" target="iUJv8x9J-QZsbXyGkX2S-10">
          <mxGeometry relative="1" as="geometry" />
        </mxCell>
        <mxCell id="iUJv8x9J-QZsbXyGkX2S-14" value="" style="edgeStyle=orthogonalEdgeStyle;rounded=0;orthogonalLoop=1;jettySize=auto;html=1;fontSize=10;entryX=0;entryY=0.5;entryDx=0;entryDy=0;" edge="1" parent="1" source="iUJv8x9J-QZsbXyGkX2S-8" target="iUJv8x9J-QZsbXyGkX2S-3">
          <mxGeometry relative="1" as="geometry">
            <mxPoint x="200" y="500" as="targetPoint" />
            <Array as="points">
              <mxPoint x="170" y="500" />
              <mxPoint x="170" y="240" />
            </Array>
          </mxGeometry>
        </mxCell>
        <mxCell id="iUJv8x9J-QZsbXyGkX2S-8" value="Details correct?" style="rhombus;whiteSpace=wrap;html=1;rounded=0;fontSize=10;" vertex="1" parent="1">
          <mxGeometry x="260" y="460" width="80" height="80" as="geometry" />
        </mxCell>
        <mxCell id="iUJv8x9J-QZsbXyGkX2S-9" value="" style="edgeStyle=orthogonalEdgeStyle;rounded=0;orthogonalLoop=1;jettySize=auto;html=1;fontSize=10;" edge="1" parent="1" source="iUJv8x9J-QZsbXyGkX2S-6" target="iUJv8x9J-QZsbXyGkX2S-8">
          <mxGeometry relative="1" as="geometry" />
        </mxCell>
        <mxCell id="iUJv8x9J-QZsbXyGkX2S-10" value="" style="whiteSpace=wrap;html=1;rounded=0;fontSize=10;" vertex="1" parent="1">
          <mxGeometry x="240" y="630" width="120" height="60" as="geometry" />
        </mxCell>
      </root>
    </mxGraphModel>
  </diagram>
</mxfile>
